<svg width="100" height="100" xmlns="http://www.w3.org/2000/svg">
 <g>
  <title>Earth</title>
  <line fill="none" stroke="#000" x1="49.32282" y1="-0.56259" x2="49.54854" y2="99.88541" id="svg_7" stroke-linejoin="undefined" stroke-linecap="undefined"/>
  <line stroke="#000" id="svg_4" y2="39.67742" x2="45.80645" y1="39.67742" x1="49.35484" fill="none"/>
  <line stroke="#000" id="svg_21" y2="39.67742" x2="30.64516" y1="39.67742" x1="49.35484" fill="none"/>
  <g id="svg_24">
   <g id="svg_15">
    <line id="svg_5" y2="43.2258" x2="1.29032" y1="38.38709" x1="1.29032" stroke="#000" fill="none"/>
    <line id="svg_11" y2="45.16129" x2="3.22581" y1="34.51613" x1="3.22581" stroke="#000" fill="none"/>
    <line id="svg_12" y2="48.38709" x2="6.12903" y1="30.64516" x1="5.80645" stroke="#000" fill="none"/>
   </g>
   <line id="svg_16" y2="39.03226" x2="7.74193" y1="39.03226" x1="17.74193" stroke="#000" fill="none"/>
  </g>
  <rect id="svg_25" height="11.6129" width="26.12903" y="33.13778" x="19.35484" stroke="#000" fill="none"/>
  <line stroke="#000" id="svg_26" y2="37.50792" x2="35.19189" y1="39.80147" x1="29.81392" fill="none"/>
  <line stroke="#000" id="svg_27" y2="42.86105" x2="34.91748" y1="39.4637" x1="30.10495" fill="none"/>
  <line stroke="#000" id="svg_29" y2="43.10193" x2="35.09158" y1="37.11618" x1="35.09158" fill="none"/>
  <rect id="svg_30" height="2.11262" width="2.55275" y="38.70064" x="32.27476" stroke="#000" fill="none"/>
  <rect id="svg_31" height="2.11262" width="2.55275" y="38.70064" x="32.27476" stroke="#000" fill="none"/>
  <rect id="svg_32" height="1.40841" width="0" y="39.66892" x="33.68317" stroke="#000" fill="none"/>
  <ellipse ry="1.10032" rx="1.05631" id="svg_33" cy="40.59319" cx="33.41909" stroke="#000" fill="none"/>
  <line id="svg_34" y2="40.2851" x2="34.29935" y1="40.37313" x1="32.09871" stroke="#000" fill="none"/>
  <line id="svg_35" y2="41.95759" x2="35.09158" y1="41.69352" x1="33.85922" stroke="#000" fill="none"/>
 </g>

</svg>