<?xml version="1.0" encoding="utf-8"?>
<!-- Generator: Adobe Illustrator 16.0.0, SVG Export Plug-In . SVG Version: 6.00 Build 0)  -->
<!DOCTYPE svg PUBLIC "-//W3C//DTD SVG 1.1//EN" "http://www.w3.org/Graphics/SVG/1.1/DTD/svg11.dtd">
<svg version="1.1" id="Layer_2" xmlns="http://www.w3.org/2000/svg" xmlns:xlink="http://www.w3.org/1999/xlink" x="0px" y="0px"
	 width="512px" height="512px" viewBox="0 0 512 512" enable-background="new 0 0 512 512" xml:space="preserve">
<g>
	<path d="M457.5,466c-3.5,0-6.9-1.3-9.5-4L48,62c-5.3-5.3-5.3-13.8,0-19.1c5.3-5.3,13.8-5.3,19.1,0l400,400c5.3,5.3,5.3,13.8,0,19.1
		C464.4,464.7,461,466,457.5,466z"/>
	<path d="M57.5,466c-3.5,0-6.9-1.3-9.5-4c-5.3-5.3-5.3-13.8,0-19.1L448,43c5.3-5.3,13.8-5.3,19.1,0c5.3,5.3,5.3,13.8,0,19.1L67,462
		C64.4,464.7,61,466,57.5,466z"/>
</g>
</svg>
