<?xml version="1.0" encoding="utf-8"?>
<!-- Generator: Adobe Illustrator 16.0.0, SVG Export Plug-In . SVG Version: 6.00 Build 0)  -->
<!DOCTYPE svg PUBLIC "-//W3C//DTD SVG 1.1//EN" "http://www.w3.org/Graphics/SVG/1.1/DTD/svg11.dtd">
<svg version="1.1" id="Layer_1" xmlns="http://www.w3.org/2000/svg" xmlns:xlink="http://www.w3.org/1999/xlink" x="0px" y="0px"
	 width="24px" height="24px" viewBox="0 0 24 24" enable-background="new 0 0 24 24" xml:space="preserve">
<title>ic_modality_car_black_24dp</title>
<desc>Created with Sketch.</desc>
<path fill="#007BFF" d="M12.532,23.164h-1.247c-0.515,0-0.954-0.316-1.118-0.807l-0.632-1.896c-0.652-0.186-1.28-0.443-1.875-0.777
	l-1.791,0.896c-0.452,0.226-1.004,0.135-1.361-0.222l-0.881-0.879c-0.366-0.364-0.453-0.899-0.222-1.362l0.895-1.79
	c-0.333-0.596-0.593-1.225-0.778-1.875l-1.898-0.633c-0.489-0.163-0.806-0.604-0.806-1.119v-1.246c0-0.516,0.316-0.955,0.806-1.119
	l1.898-0.632C3.708,9.05,3.968,8.422,4.3,7.829L3.405,6.038C3.174,5.576,3.261,5.042,3.626,4.676l0.881-0.881
	C4.864,3.439,5.42,3.35,5.869,3.575L7.66,4.47c0.594-0.333,1.222-0.593,1.875-0.777l0.632-1.898c0.164-0.49,0.604-0.806,1.119-0.806
	h1.247c0.516,0,0.955,0.316,1.119,0.805l0.632,1.899c0.651,0.185,1.282,0.445,1.875,0.777l1.789-0.895
	c0.454-0.225,1.004-0.136,1.362,0.22l0.881,0.882c0.365,0.365,0.451,0.9,0.223,1.361L19.518,7.83
	c0.332,0.592,0.594,1.22,0.777,1.873l1.898,0.633c0.49,0.165,0.806,0.604,0.806,1.12V12.7c0,0.516-0.313,0.955-0.804,1.12
	l-1.9,0.633c-0.186,0.65-0.445,1.279-0.777,1.872l0.896,1.792c0.229,0.461,0.145,0.994-0.223,1.359l-0.881,0.881
	c-0.356,0.356-0.908,0.445-1.36,0.223l-1.792-0.896c-0.592,0.332-1.221,0.592-1.874,0.777l-0.632,1.896
	C13.486,22.848,13.049,23.164,12.532,23.164z M7.496,18.881l0.378,0.014c0.648,0.385,1.343,0.674,2.066,0.856l0.276,0.259l0.7,2.098
	c0.055,0.164,0.197,0.267,0.369,0.267h1.247c0.173,0,0.313-0.103,0.368-0.267l0.701-2.1l0.275-0.257
	c0.727-0.187,1.421-0.474,2.064-0.856l0.379-0.014l1.98,0.991c0.15,0.073,0.328,0.048,0.448-0.074l0.882-0.881
	c0.123-0.122,0.151-0.293,0.074-0.447l-0.993-1.98l0.013-0.38c0.385-0.646,0.674-1.34,0.857-2.063l0.258-0.276l2.102-0.699
	c0.162-0.055,0.266-0.195,0.266-0.369v-1.245c0-0.174-0.104-0.315-0.268-0.371l-2.1-0.699l-0.258-0.277
	c-0.186-0.725-0.475-1.419-0.857-2.063l-0.013-0.378l0.992-1.981c0.075-0.155,0.048-0.326-0.074-0.449l-0.881-0.881
	c-0.121-0.119-0.296-0.148-0.449-0.072l-1.979,0.99l-0.379-0.014c-0.646-0.383-1.342-0.67-2.065-0.854L13.6,4.147l-0.699-2.1
	c-0.055-0.164-0.195-0.266-0.368-0.266h-1.247c-0.172,0-0.314,0.102-0.37,0.266l-0.699,2.099L9.94,4.402
	C9.215,4.587,8.52,4.875,7.874,5.257L7.496,5.271l-1.98-0.99c-0.154-0.077-0.329-0.047-0.45,0.073l-0.88,0.88
	C4.063,5.357,4.035,5.53,4.112,5.685l0.99,1.98L5.089,8.043c-0.383,0.646-0.671,1.341-0.856,2.066l-0.258,0.276l-2.099,0.699
	c-0.164,0.056-0.266,0.197-0.266,0.37V12.7c0,0.174,0.102,0.313,0.266,0.368l2.099,0.701l0.258,0.276
	c0.185,0.726,0.474,1.42,0.856,2.065l0.013,0.379l-0.991,1.979c-0.077,0.154-0.049,0.326,0.073,0.448l0.881,0.881
	c0.121,0.122,0.296,0.149,0.449,0.073L7.496,18.881z M11.901,16.583c-2.498,0-4.53-2.031-4.53-4.53c0-2.498,2.033-4.53,4.53-4.53
	c2.498,0,4.531,2.032,4.531,4.53C16.434,14.552,14.4,16.583,11.901,16.583z M11.901,8.313c-2.062,0-3.74,1.678-3.74,3.739
	c0,2.062,1.678,3.739,3.74,3.739s3.74-1.677,3.74-3.739C15.643,9.991,13.964,8.313,11.901,8.313z"/>
</svg>
