<?xml version="1.0" encoding="UTF-8"?><svg id="Laag_1" xmlns="http://www.w3.org/2000/svg" viewBox="0 600 1500 300"><defs><style>.cls-1{fill:#fff;}</style></defs><polygon class="cls-1" points="784.22 672.77 754.21 800.57 716.9 695.66 684.87 695.66 648.18 800.22 616.83 672.77 584.56 672.77 627.12 839.25 627.49 840.66 664.61 840.66 700.39 743.21 735.93 840.66 773.05 840.66 816.26 672.77 784.22 672.77"/><path class="cls-1" d="M841.55,840.66v-140.33h29.16v140.33h-29.16Z"/><path class="cls-1" d="M962.72,842.86c-5.5,0-11.42-.18-17.75-.55-6.33-.37-12.52-.83-18.57-1.38-6.05-.55-11.47-1.19-16.23-1.93v-23.11c3.12,.18,6.65,.46,10.59,.83,3.94,.37,8.12,.65,12.52,.83,4.4,.18,8.71,.37,12.93,.55,4.22,.18,8.34,.27,12.38,.27,8.81,0,15.18-.55,19.12-1.65,3.94-1.1,6.51-2.98,7.7-5.64,1.19-2.66,1.79-6.1,1.79-10.32,0-4.77-.41-8.26-1.24-10.45-.83-2.2-2.34-3.67-4.54-4.4-2.2-.73-5.6-1.37-10.18-1.93l-34.12-4.12c-8.8-.92-15.45-2.98-19.95-6.19-4.5-3.21-7.52-7.61-9.08-13.21-1.56-5.59-2.34-12.42-2.34-20.5,0-9.36,1.33-16.82,3.99-22.42,2.66-5.59,6.42-9.77,11.28-12.52,4.86-2.75,10.77-4.58,17.75-5.5,6.97-.92,14.58-1.37,22.84-1.37,5.13,0,10.5,.18,16.1,.55,5.59,.37,11,.88,16.23,1.51,5.23,.65,9.77,1.33,13.62,2.07v23.11c-4.4-.55-9.17-1-14.31-1.38-5.14-.36-10.23-.69-15.27-.96-5.05-.27-9.86-.41-14.45-.41-6.79,0-12.38,.32-16.78,.96-4.4,.65-7.66,2.12-9.77,4.4-2.11,2.29-3.16,6.19-3.16,11.69,0,4.22,.32,7.38,.96,9.49,.64,2.11,2.02,3.58,4.13,4.4,2.11,.83,5.37,1.52,9.77,2.07l36.87,4.4c6.97,.73,12.61,2.15,16.92,4.26,4.31,2.11,7.52,5.87,9.63,11.28,2.11,5.41,3.16,13.62,3.16,24.63,0,9.17-1.15,16.56-3.44,22.15-2.3,5.59-5.74,9.9-10.32,12.93-4.59,3.03-10.14,5.05-16.65,6.05-6.51,1-13.89,1.51-22.15,1.51Z"/><path class="cls-1" d="M1216.48,842.86c-11.74,0-21.51-.74-29.3-2.2-7.8-1.47-13.94-3.81-18.44-7.02-4.5-3.21-7.8-7.57-9.9-13.07-2.11-5.5-3.49-12.38-4.13-20.64-.65-8.25-.96-18.16-.96-29.71s.32-21.19,.96-29.44c.64-8.26,2.02-15.13,4.13-20.64,2.11-5.5,5.41-9.86,9.9-13.07,4.49-3.21,10.64-5.5,18.44-6.88,7.79-1.37,17.56-2.06,29.3-2.06s21.78,.69,29.58,2.06c7.79,1.38,13.94,3.67,18.44,6.88,4.49,3.21,7.79,7.56,9.9,13.07,2.11,5.5,3.48,12.38,4.13,20.64,.64,8.26,.96,18.07,.96,29.44s-.32,21.46-.96,29.71c-.64,8.26-2.02,15.13-4.13,20.64-2.11,5.5-5.41,9.86-9.9,13.07-4.5,3.21-10.64,5.55-18.44,7.02-7.8,1.46-17.66,2.2-29.58,2.2Zm0-24.49c8.44,0,14.95-.55,19.53-1.65,4.58-1.1,7.84-3.3,9.77-6.6,1.93-3.3,3.12-8.16,3.58-14.58,.46-6.42,.69-14.86,.69-25.31s-.23-18.85-.69-25.18c-.46-6.32-1.65-11.14-3.58-14.45-1.93-3.3-5.18-5.45-9.77-6.46-4.59-1-11.1-1.51-19.53-1.51s-14.68,.51-19.26,1.51c-4.59,1.01-7.84,3.16-9.77,6.46-1.93,3.3-3.12,8.12-3.58,14.45-.46,6.33-.69,14.72-.69,25.18s.23,18.89,.69,25.31c.46,6.42,1.65,11.28,3.58,14.58,1.93,3.3,5.18,5.5,9.77,6.6,4.58,1.1,11.01,1.65,19.26,1.65Z"/><polygon class="cls-1" points="1393.21 700.33 1345.69 700.33 1331.3 700.33 1316.51 700.33 1316.51 840.66 1345.68 840.66 1345.67 727.83 1393.21 727.83 1393.21 700.33"/><polygon class="cls-1" points="1123.24 727.83 1123.24 700.33 1090.5 700.33 1090.5 669.37 1061.33 669.37 1061.59 700.33 1040.31 700.33 1040.31 727.83 1061.33 727.83 1061.33 813.16 1061.33 840.66 1090.5 840.66 1123.24 840.66 1123.24 813.16 1090.5 813.16 1090.5 727.83 1123.24 727.83"/><path class="cls-1" d="M289.62,865.94l-.28-.33c-.47-.57-.93-1.17-1.38-1.77l-120.74-148.84-60.43,74.09,51.91,63.97c10.19,15.18,30.57,23.61,50.95,23.61h89.31c-3.26-3.44-6.38-7.12-9.35-10.73Z"/><path class="cls-1" d="M348.31,752.56l-65.25,80.41,1.84,2.38,15.39,18.97c.5,.67,.79,1.04,1.09,1.4l.28,.34c1.68,2.05,4.11,5.01,6.9,8.07,6.57,7.2,15.57,12.03,25.3,12.53,.07,0,.14,0,.21,.01,19.92,0,43.91,1.75,54.75-12.63l25.05-30.87-65.56-80.61Z"/><path class="cls-1" d="M330.17,634.29l.28,.33c.47,.57,.93,1.17,1.38,1.77l88.01,108.15,60.43-74.09-19.17-23.28c-10.19-15.18-30.57-23.61-50.95-23.61h-89.31c3.26,3.44,6.38,7.12,9.35,10.73Z"/><path class="cls-1" d="M271.48,747.67l65.25-80.41-1.84-2.38-15.39-18.97c-.5-.67-.79-1.04-1.09-1.4l-.28-.34c-1.68-2.05-4.11-5.01-6.9-8.07-6.57-7.2-15.57-12.03-25.3-12.53-.07,0-.14,0-.21-.01-19.45-.09-41.39-3.17-54.75,12.63l-25.05,30.87,65.56,80.61Z"/></svg>