<?xml version="1.0" encoding="UTF-8"?><svg id="Laag_1" xmlns="http://www.w3.org/2000/svg" xmlns:xlink="http://www.w3.org/1999/xlink" viewBox="0 0 1500 1500"><defs><style>.cls-1{fill:#1d1359;}.cls-2{fill:url(#Naamloos_verloop_419-2);}.cls-3{fill:#6950ff;}.cls-4{fill:url(#Naamloos_verloop_419);}.cls-5{fill:url(#Naamloos_verloop_728-2);}.cls-6{fill:url(#Naamloos_verloop_728);}</style><linearGradient id="Naamloos_verloop_728" x1="-2875.77" y1="3792.53" x2="-2959.51" y2="3881.36" gradientTransform="translate(-2108.71 4240.67) rotate(179.81)" gradientUnits="userSpaceOnUse"><stop offset="0" stop-color="#1d1359"/><stop offset=".42" stop-color="#1d1343"/><stop offset=".71" stop-color="#1d133b"/></linearGradient><linearGradient id="Naamloos_verloop_728-2" x1="637.41" y1="958.7" x2="550.44" y2="1050.96" gradientTransform="translate(216.17 105.92) rotate(-.19)" xlink:href="#Naamloos_verloop_728"/><linearGradient id="Naamloos_verloop_419" x1="336.97" y1="1134.22" x2="227.87" y2="548.26" gradientTransform="translate(216.17 105.92) rotate(-.19)" gradientUnits="userSpaceOnUse"><stop offset="0" stop-color="#29235c" stop-opacity=".4"/><stop offset=".01" stop-color="#2e2669" stop-opacity=".45"/><stop offset=".03" stop-color="#3a2f88" stop-opacity=".57"/><stop offset=".05" stop-color="#4537a5" stop-opacity=".67"/><stop offset=".07" stop-color="#4f3dbd" stop-opacity=".76"/><stop offset=".09" stop-color="#5743d2" stop-opacity=".84"/><stop offset=".11" stop-color="#5d48e2" stop-opacity=".9"/><stop offset=".14" stop-color="#624bef" stop-opacity=".94"/><stop offset=".18" stop-color="#664ef8" stop-opacity=".98"/><stop offset=".22" stop-color="#684ffd" stop-opacity=".99"/><stop offset=".35" stop-color="#6950ff"/></linearGradient><linearGradient id="Naamloos_verloop_419-2" x1="820.59" y1="164" x2="823.59" y2="788.97" xlink:href="#Naamloos_verloop_419"/></defs><path class="cls-1" d="M843.55,371.17c-1.19-1.66-2.42-3.28-3.69-4.88-21.97-27.59-57.71-43.72-95.53-45.41-64.97,1.51-138.49-4.95-172.56,37.42l-87.23,112.43,214.9,273.21,211.88-274.65-67.77-98.11Z"/><path class="cls-6" d="M864.46,529.64s-249.18-186.97-201.29-199.69c109.89-29.19,157.53,25.83,157.53,25.83l90.61,113.47-46.86,60.39Z"/><path class="cls-1" d="M771.46,1126.44c1.19,1.66,2.42,3.28,3.69,4.88,21.97,27.59,54.32,46.2,92.15,47.89,64.97-1.51,146.24,7.07,178.67-43.46l81.46-104.99-215.03-272.77-212.21,273.5,71.27,94.95Z"/><path class="cls-5" d="M747.04,971.1s249.5,188.26,201.29,199.69c-93.3,22.12-146.3-8.87-146.3-8.87l-101.84-130.43,46.86-60.39Z"/><path class="cls-3" d="M780.53,1134.07c-1.28-1.59-2.5-3.22-3.69-4.88L373.78,609.54l-211.88,274.65,170.52,216.68c33.47,51.4,100.1,79.78,166.68,79.55l369.78-1.23c1.39,0,2.64-.08,4.16-.14-37.83-1.69-70.55-17.4-92.52-45Z"/><path class="cls-4" d="M780.53,1134.07c-1.28-1.59-2.5-3.22-3.69-4.88L373.78,609.54l-211.63,274.88,170.27,216.46c33.47,51.4,100.1,79.78,166.68,79.55l369.78-1.23c1.39,0,2.64-.08,4.16-.14-37.83-1.69-70.55-17.4-92.52-45Z"/><path class="cls-3" d="M1273.23,373.08c-1.19-1.66-2.42-3.28-3.69-4.88-21.97-27.59-55.31-46.94-93.13-48.63-16.17,.38-32.87,.26-49.36,.53-4.75-.28-9.56-.45-14.52-.44l-369.78,1.23c-1.39,0-2.77,.11-4.17,.14,37.83,1.69,71.22,19.23,93.19,46.82,1.28,1.59,2.5,3.22,3.69,4.88l290.77,369.8,211.88-274.65-64.87-94.78Z"/><path class="cls-2" d="M1273.23,373.08c-1.19-1.66-2.42-3.28-3.69-4.88-21.97-27.59-55.31-46.94-93.13-48.63-16.17,.38-32.87,.26-49.36,.53-4.75-.28-9.56-.45-14.52-.44l-369.78,1.23c-1.39,0-2.77,.11-4.17,.14,37.83,1.69,71.22,19.23,93.19,46.82,1.28,1.59,2.5,3.22,3.69,4.88l290.77,369.8,211.88-274.65-64.87-94.78Z"/></svg>