<?xml version="1.0" encoding="utf-8"?>
<!-- Generator: Adobe Illustrator 16.0.0, SVG Export Plug-In . SVG Version: 6.00 Build 0)  -->
<!DOCTYPE svg PUBLIC "-//W3C//DTD SVG 1.1//EN" "http://www.w3.org/Graphics/SVG/1.1/DTD/svg11.dtd">
<svg version="1.1" id="Layer_2" xmlns="http://www.w3.org/2000/svg" xmlns:xlink="http://www.w3.org/1999/xlink" x="0px" y="0px"
	 width="512px" height="512px" viewBox="0 0 512 512" enable-background="new 0 0 512 512" xml:space="preserve">
<path d="M255.833,510c-68.246,0-132.408-26.576-180.666-74.834S0.333,322.746,0.333,254.5S26.91,122.092,75.168,73.834
	C123.426,25.577,187.587-1,255.833-1c68.246,0,132.408,26.577,180.666,74.834c48.258,48.258,74.834,112.42,74.834,180.666
	s-26.576,132.408-74.834,180.666S324.079,510,255.833,510z M255.834,17.913c-63.194,0-122.606,24.61-167.292,69.295
	C43.856,131.894,19.247,191.306,19.247,254.5s24.609,122.607,69.295,167.292c44.686,44.687,104.098,69.295,167.292,69.295
	c63.193,0,122.606-24.608,167.291-69.295c44.688-44.685,69.296-104.098,69.296-167.292s-24.608-122.606-69.296-167.292
	C378.44,42.522,319.027,17.913,255.834,17.913z"/>
<path d="M375.423,266.459H136.244c-6.605,0-11.959-5.354-11.959-11.959c0-6.605,5.354-11.959,11.959-11.959h239.179
	c6.604,0,11.959,5.354,11.959,11.959C387.382,261.104,382.027,266.459,375.423,266.459z"/>
<path d="M255.833,386.049c-6.605,0-11.959-5.354-11.959-11.959V134.91c0-6.605,5.354-11.959,11.959-11.959
	c6.604,0,11.959,5.354,11.959,11.959v239.18C267.793,380.695,262.438,386.049,255.833,386.049z"/>
</svg>
