<svg xmlns="http://www.w3.org/2000/svg" viewBox="0 0 420.31 183.445"><link xmlns="" type="text/css" id="dark-mode" rel="stylesheet" href=""/><text style="line-height:125%;-inkscape-font-specification:Theorem NBP" x="906.742" y="955.505" font-size="75.441" font-weight="400" letter-spacing="0" word-spacing="0" fill="#1690c6" font-family="Theorem NBP" transform="translate(-59.658 -306.024)"><tspan x="906.742" y="955.505" style="-inkscape-font-specification:MAXWELL REGULAR" font-size="170" font-family="MAXWELL REGULAR">triply</tspan></text><path d="M-525.594 113.177a7.664 7.664 0 0 1-7.666-7.675 7.665 7.665 0 0 1 7.666-7.675 7.666 7.666 0 0 1 7.666 7.675 7.665 7.665 0 0 1-7.666 7.675zm0-31.293c-13.033 0-23.589 10.57-23.589 23.618 0 2.783.506 5.442 1.387 7.92h-81.48c-1.187 5.819-3.772 11.076-7.225 15.648l48.214-.008v79.907c5.805 1.196 11.05 3.775 15.608 7.231v-87.14l47.085.06c13.032 0 23.589-10.57 23.589-23.618 0-13.048-10.557-23.618-23.589-23.618" fill="#ed583a"/><path d="M-667.685 113.177a7.666 7.666 0 0 1-7.67-7.675 7.667 7.667 0 0 1 7.67-7.675 7.666 7.666 0 0 1 7.668 7.675 7.665 7.665 0 0 1-7.668 7.675zm110.806-31.328l-110.806.035c-13.035 0-23.594 10.57-23.594 23.618 0 13.048 10.56 23.618 23.594 23.618 13.03 0 23.586-10.57 23.586-23.618 0-2.821-.52-5.515-1.424-8.022h81.415c1.199-5.811 3.778-11.06 7.23-15.63m-39.378 173.327a7.667 7.667 0 0 1-7.67-7.677 7.666 7.666 0 0 1 7.67-7.674 7.665 7.665 0 0 1 7.668 7.674 7.665 7.665 0 0 1-7.668 7.677zm0-31.295a23.46 23.46 0 0 0-7.957 1.405v-80.58h-15.617l.009 102.285c-.003.17-.027.338-.027.508 0 13.047 10.556 23.623 23.59 23.623 13.03 0 23.59-10.576 23.59-23.623 0-13.05-10.56-23.618-23.59-23.618" fill="#ed583a"/><path style="line-height:125%;-inkscape-font-specification:MAXWELL BOLD" d="M-508.564 239.316c-5.036 0-9.334-1.781-12.896-5.343-3.562-3.562-5.343-7.86-5.343-12.896v-30.95h12.896c2.702 0 5.005-.951 6.909-2.855 1.903-1.904 2.855-4.176 2.855-6.816 0-2.702-.952-5.005-2.855-6.909-1.904-1.903-4.207-2.855-6.909-2.855h-12.896v-24.226c0-2.702-.952-5.005-2.855-6.908-1.904-1.843-4.176-2.764-6.816-2.764-2.702 0-5.005.921-6.909 2.764-1.904 1.903-2.855 4.206-2.855 6.908v74.611c0 10.378 3.684 19.252 11.053 26.62 7.37 7.37 16.243 11.054 26.62 11.054h5.343c2.702 0 5.005-.951 6.909-2.855 1.903-1.904 2.855-4.206 2.855-6.908 0-2.641-.952-4.913-2.855-6.817-1.904-1.903-4.207-2.855-6.909-2.855h-5.342" font-size="75.156" font-weight="400" letter-spacing="0" word-spacing="0" fill="#1690c6" font-family="MAXWELL BOLD"/><path style="line-height:125%;-inkscape-font-specification:MAXWELL BOLD" d="M-458.285 259.363c-3.139 0-5.789-1.116-7.95-3.348-2.233-2.162-3.349-4.812-3.349-7.95v-46.66c0-12.067 4.29-22.39 12.868-30.968 8.579-8.578 18.901-12.868 30.967-12.868h6.382c3.069 0 5.72 1.116 7.951 3.348 2.232 2.162 3.348 4.812 3.348 7.95 0 3.14-1.116 5.825-3.348 8.056-2.232 2.163-4.882 3.244-7.95 3.244h-6.383c-5.789 0-10.775 2.092-14.96 6.277-4.115 4.115-6.173 9.102-6.173 14.96v46.66c0 3.139-1.115 5.789-3.347 7.951-2.232 2.232-4.917 3.348-8.056 3.348m73.547-138.41c-3.278 0-6.033 1.116-8.265 3.347-2.302 2.302-3.452 5.057-3.452 8.265 0 3.209 1.15 5.964 3.452 8.265 2.232 2.232 4.987 3.348 8.265 3.348 3.208 0 5.928-1.116 8.16-3.348 2.302-2.301 3.453-5.056 3.453-8.265 0-3.208-1.151-5.963-3.453-8.265-2.232-2.231-4.952-3.347-8.16-3.347m0 138.41c-3.278 0-6.033-1.15-8.265-3.453-2.302-2.231-3.452-4.986-3.452-8.264v-81.498c0-3.208 1.15-5.963 3.452-8.265 2.232-2.302 4.987-3.452 8.265-3.452 3.208 0 5.928 1.15 8.16 3.452 2.302 2.302 3.453 5.057 3.453 8.265v81.498c0 3.278-1.151 6.033-3.453 8.264-2.232 2.302-4.952 3.453-8.16 3.453m98.551-45.091c0 5.79-2.023 10.706-6.068 14.751-4.115 4.046-9.032 6.068-14.752 6.068h-.313c-5.72 0-10.602-2.022-14.647-6.068-4.115-4.045-6.173-8.962-6.173-14.75v-13.706c0-5.719 2.058-10.636 6.173-14.75 4.045-4.046 8.927-6.069 14.647-6.069h.313c5.72 0 10.637 2.023 14.752 6.068 4.045 4.115 6.067 9.032 6.068 14.751v13.705m-20.82 43.103c11.857 0 22.005-4.22 30.444-12.659 8.37-8.37 12.555-18.517 12.555-30.444v-13.705c0-11.856-4.185-22.004-12.555-30.444-8.439-8.37-18.587-12.554-30.444-12.554h-.313c-11.857 0-21.97 4.185-30.34 12.554-8.439 8.44-12.659 18.588-12.659 30.444v85.264c0 3.07 1.081 5.685 3.244 7.847 2.162 2.162 4.777 3.243 7.846 3.243s5.684-1.081 7.846-3.243 3.243-4.778 3.243-7.847v-33.896c6.487 3.627 13.426 5.44 20.82 5.44h.313m86.415 1.988c-1.604 0-3.103-.314-4.498-.942-8.37-3.766-15.03-9.45-19.982-17.053-4.952-7.672-7.428-16.076-7.428-25.213v-84.427c0-3.068 1.08-5.684 3.243-7.846 2.162-2.162 4.777-3.243 7.846-3.243 3 0 5.58 1.08 7.742 3.243 2.162 2.162 3.243 4.778 3.243 7.846v84.427c0 4.743 1.325 9.137 3.976 13.182 2.58 3.976 6.033 6.94 10.357 8.893 2.79 1.255 4.743 3.313 5.859 6.172 1.046 2.86.941 5.65-.314 8.37-1.953 4.394-5.301 6.59-10.044 6.59m97.274-98.277c-2.963 0-5.499 1.054-7.606 3.161s-3.16 4.643-3.16 7.606v44.055c0 5.597-1.976 10.371-5.927 14.322-3.886 3.951-8.627 5.927-14.224 5.927h-.297c-5.531 0-10.272-1.976-14.224-5.927-3.95-3.95-5.926-8.725-5.926-14.322v-44.055c0-2.963-1.054-5.499-3.161-7.606s-4.643-3.16-7.606-3.16-5.498 1.053-7.606 3.16c-2.107 2.107-3.16 4.643-3.16 7.606v44.055c0 11.524 4.082 21.368 12.248 29.534 8.165 8.166 17.977 12.248 29.435 12.248h.297c7.178 0 13.894-1.745 20.15-5.235v1.877c0 5.531-1.975 10.273-5.926 14.224-3.886 3.95-8.627 5.926-14.224 5.926h-.297c-4.148 0-7.902-1.152-11.26-3.457-3.03-2.041-5.301-4.675-6.816-7.902-1.317-2.634-3.391-4.445-6.223-5.433-2.831-.987-5.564-.823-8.198.494-2.7 1.317-4.511 3.392-5.433 6.223-.988 2.766-.823 5.499.494 8.199 3.227 6.65 7.902 12.05 14.026 16.2 7.046 4.806 14.85 7.21 23.41 7.21h.297c11.524 0 21.336-4.083 29.435-12.248 8.166-8.166 12.249-17.978 12.249-29.436v-82.48c0-2.962-1.054-5.498-3.161-7.605s-4.643-3.16-7.606-3.16M216.64-181.236c-3.138 0-5.788-1.116-7.95-3.348-2.232-2.162-3.348-4.813-3.348-7.951v-46.66c0-12.066 4.29-22.388 12.868-30.967 8.578-8.579 18.9-12.868 30.967-12.868h6.382c3.068 0 5.719 1.116 7.95 3.348 2.232 2.162 3.348 4.812 3.348 7.95 0 3.14-1.116 5.824-3.347 8.056-2.232 2.162-4.883 3.244-7.951 3.243h-6.382c-5.79 0-10.776 2.093-14.96 6.278-4.116 4.115-6.173 9.101-6.173 14.96v46.66c0 3.138-1.116 5.789-3.348 7.95-2.232 2.233-4.917 3.349-8.055 3.349m73.546-138.411c-3.278 0-6.033 1.116-8.265 3.348-2.301 2.302-3.452 5.057-3.452 8.265s1.15 5.963 3.452 8.265c2.232 2.232 4.987 3.348 8.265 3.348 3.209 0 5.929-1.116 8.16-3.348 2.302-2.302 3.453-5.057 3.453-8.265s-1.15-5.963-3.452-8.265c-2.232-2.232-4.952-3.348-8.16-3.348m0 138.41c-3.279 0-6.034-1.15-8.266-3.452-2.301-2.232-3.452-4.987-3.452-8.265v-81.497c0-3.209 1.15-5.964 3.452-8.265 2.232-2.302 4.987-3.453 8.265-3.453 3.209 0 5.929 1.151 8.16 3.453 2.302 2.301 3.453 5.056 3.453 8.265v81.497c0 3.278-1.15 6.033-3.452 8.265-2.232 2.302-4.952 3.453-8.16 3.453m98.55-45.091c0 5.789-2.023 10.706-6.068 14.751-4.115 4.046-9.032 6.068-14.751 6.068h-.314c-5.72 0-10.601-2.022-14.647-6.068-4.115-4.045-6.172-8.962-6.172-14.75v-13.706c0-5.72 2.057-10.636 6.172-14.751 4.046-4.045 8.928-6.068 14.647-6.068h.314c5.719 0 10.636 2.023 14.751 6.068 4.045 4.115 6.068 9.032 6.068 14.751v13.705m-20.82 43.103c11.858 0 22.006-4.22 30.445-12.659 8.37-8.37 12.554-18.517 12.554-30.444v-13.705c0-11.857-4.185-22.005-12.554-30.444-8.44-8.37-18.587-12.554-30.444-12.554h-.314c-11.857 0-21.97 4.185-30.34 12.554-8.439 8.44-12.658 18.587-12.658 30.444v85.264c0 3.069 1.08 5.684 3.243 7.847 2.162 2.162 4.778 3.243 7.846 3.243 3.07 0 5.685-1.081 7.847-3.243 2.162-2.163 3.243-4.778 3.243-7.847v-33.896c6.486 3.626 13.426 5.44 20.82 5.44h.313m86.415 1.988c-1.605 0-3.104-.314-4.499-.942-8.37-3.766-15.03-9.45-19.982-17.053-4.952-7.672-7.428-16.076-7.428-25.213v-84.427c0-3.069 1.081-5.684 3.243-7.846s4.778-3.243 7.847-3.244c2.999 0 5.58 1.082 7.741 3.244 2.162 2.162 3.244 4.777 3.244 7.846v84.427c0 4.743 1.325 9.137 3.975 13.182 2.58 3.976 6.033 6.94 10.357 8.893 2.79 1.255 4.743 3.313 5.859 6.172 1.046 2.86.941 5.65-.314 8.37-1.953 4.394-5.3 6.59-10.043 6.59m97.273-98.277c-2.963 0-5.498 1.054-7.605 3.16-2.108 2.108-3.161 4.643-3.161 7.607v44.054c0 5.598-1.976 10.372-5.927 14.323-3.885 3.951-8.627 5.927-14.224 5.927h-.296c-5.532 0-10.273-1.976-14.224-5.927-3.951-3.951-5.927-8.725-5.927-14.323v-44.054c0-2.964-1.053-5.499-3.16-7.606-2.108-2.107-4.643-3.16-7.606-3.161-2.964 0-5.499 1.054-7.606 3.16-2.108 2.108-3.161 4.643-3.161 7.607v44.054c0 11.524 4.083 21.37 12.248 29.535 8.166 8.165 17.978 12.248 29.436 12.248h.296c7.178 0 13.895-1.745 20.15-5.235v1.877c0 5.531-1.975 10.272-5.926 14.224-3.885 3.95-8.627 5.926-14.224 5.926h-.296c-4.149 0-7.902-1.152-11.26-3.457-3.03-2.041-5.302-4.675-6.816-7.902-1.318-2.634-3.392-4.445-6.223-5.433-2.832-.988-5.565-.823-8.199.494-2.7 1.317-4.51 3.391-5.433 6.223-.987 2.766-.823 5.499.494 8.198 3.227 6.651 7.902 12.051 14.027 16.2 7.046 4.807 14.85 7.21 23.41 7.21h.296c11.524 0 21.336-4.082 29.436-12.248 8.165-8.165 12.248-17.977 12.248-29.435v-82.48c0-2.963-1.054-5.498-3.16-7.605-2.108-2.107-4.643-3.16-7.607-3.161" font-size="191.801" font-weight="400" letter-spacing="0" word-spacing="0" fill="#1690c6" font-family="MAXWELL BOLD"/><g fill="#ed583a"><path d="M-440.046 593.24a8.321 8.321 0 0 1 1.525-11.678 8.322 8.322 0 0 1 11.68 1.516 8.32 8.32 0 0 1-1.527 11.677 8.32 8.32 0 0 1-11.678-1.515zm100.296 74.574l-73.378-95.29c-8.629-11.211-24.71-13.297-35.934-4.66-11.223 8.637-13.326 24.717-4.697 35.929 8.625 11.208 24.704 13.29 35.928 4.653a25.593 25.593 0 0 0 5.958-6.534l53.892 70.03c5.793-2.815 12.015-4.07 18.231-4.128"/><path d="M-258.948 594.347a8.321 8.321 0 0 0-11.762.616 8.32 8.32 0 0 0 .607 11.76 8.32 8.32 0 0 0 11.758-.614 8.32 8.32 0 0 0-.603-11.762zm-22.742 25.23a25.464 25.464 0 0 1-5.393-6.915l-58.56 64.964-12.59-11.35 74.34-82.455c.12-.139.224-.292.347-.429 9.482-10.519 25.677-11.374 36.186-1.901 10.505 9.47 11.332 25.668 1.85 36.187-9.483 10.52-25.676 11.367-36.18 1.898"/></g><g fill="#ed583a"><path d="M156.95 29.676a7.26 7.26 0 0 1-7.263-7.27 7.26 7.26 0 0 1 7.262-7.271 7.261 7.261 0 0 1 7.262 7.27 7.26 7.26 0 0 1-7.262 7.271zm0-29.643c-12.347 0-22.346 10.013-22.346 22.373 0 2.636.48 5.154 1.314 7.503H58.734C57.609 35.42 55.16 40.4 51.89 44.731l45.672-.007v75.694c5.499 1.133 10.467 3.577 14.785 6.85V44.723l44.602.056c12.345 0 22.345-10.013 22.345-22.373 0-12.36-10-22.372-22.345-22.372"/><path d="M22.35 29.676a7.262 7.262 0 0 1-7.266-7.27 7.263 7.263 0 0 1 7.266-7.271 7.262 7.262 0 0 1 7.263 7.27 7.26 7.26 0 0 1-7.263 7.271zM127.314 0L22.35.033C10.002.033 0 10.046 0 22.406c0 12.36 10.002 22.372 22.35 22.372 12.343 0 22.342-10.013 22.342-22.372 0-2.672-.492-5.224-1.348-7.6h77.121c1.136-5.504 3.58-10.476 6.849-14.806M90.012 164.19a7.263 7.263 0 0 1-7.265-7.273c0-4.02 3.25-7.269 7.265-7.269a7.26 7.26 0 0 1 7.264 7.269 7.261 7.261 0 0 1-7.264 7.272zm0-29.646c-2.65 0-5.18.485-7.536 1.332V59.543H67.68l.009 96.893c-.003.16-.025.32-.025.481 0 12.36 9.999 22.377 22.346 22.377 12.343 0 22.345-10.017 22.345-22.377 0-12.361-10.002-22.373-22.345-22.373"/></g><path style="line-height:125%;-inkscape-font-specification:MAXWELL REGULAR" d="M150.954 146.553c1.268 0 2.334-.432 3.2-1.297.864-.923 1.296-1.99 1.297-3.2v-40.213c0-6.515 2.306-12.079 6.918-16.691 4.612-4.613 10.176-6.919 16.69-6.919h5.45c1.21 0 2.276-.432 3.199-1.297.865-.865 1.297-1.931 1.297-3.2 0-1.268-.432-2.335-1.297-3.2-.923-.864-1.99-1.297-3.2-1.297h-5.448c-8.994 0-16.662 3.171-23.004 9.513-6.4 6.4-9.6 14.097-9.6 23.09v40.214c0 1.21.433 2.277 1.298 3.2.922.865 1.989 1.297 3.2 1.297m58.806-97.031c1.903 0 3.517-.663 4.843-1.99 1.326-1.325 1.99-2.94 1.99-4.842 0-1.903-.664-3.517-1.99-4.843s-2.94-1.99-4.842-1.99c-1.903 0-3.517.664-4.843 1.99s-1.99 2.94-1.99 4.843c0 1.902.664 3.517 1.99 4.842 1.326 1.327 2.94 1.99 4.843 1.99m4.842 92.188c0 1.326-.46 2.48-1.383 3.46-.98.922-2.133 1.383-3.46 1.383-1.326 0-2.479-.461-3.459-1.384-.922-.98-1.383-2.133-1.383-3.459V68.288c0-1.326.46-2.48 1.383-3.46.98-.922 2.133-1.383 3.46-1.383 1.326 0 2.479.461 3.459 1.384.922.98 1.383 2.133 1.383 3.459v73.422m29.231-40.56c0-6.457 2.277-11.962 6.832-16.517s10.06-6.832 16.518-6.832h.26c6.456 0 11.962 2.277 16.517 6.832 4.612 4.555 6.919 10.06 6.919 16.518v12.02c0 6.458-2.307 11.964-6.919 16.518-4.555 4.613-10.06 6.919-16.518 6.919h-.26c-6.456 0-11.962-2.306-16.517-6.919-4.555-4.554-6.832-10.06-6.832-16.517V101.15m-4.497 78.957c1.21 0 2.248-.433 3.113-1.297.923-.865 1.384-1.932 1.384-3.2v-40.127c6.342 6.687 14.125 10.031 23.35 10.031h.26c8.936 0 16.575-3.142 22.917-9.426 6.284-6.342 9.426-13.981 9.426-22.917V101.15c0-8.937-3.142-16.547-9.426-22.831-6.342-6.342-13.981-9.513-22.918-9.513h-.26c-8.936 0-16.546 3.17-22.83 9.513-6.342 6.284-9.513 13.894-9.513 22.83v74.46c0 1.27.432 2.336 1.297 3.2.865.865 1.932 1.298 3.2 1.298m99.399-33.987a4.01 4.01 0 0 0 1.816.433c1.903 0 3.258-.893 4.065-2.68.519-1.096.548-2.22.087-3.374-.404-1.153-1.182-1.989-2.335-2.507-4.728-2.076-8.504-5.305-11.33-9.686-2.824-4.382-4.237-9.138-4.237-14.27V40.268c0-1.21-.432-2.248-1.297-3.113-.865-.865-1.932-1.297-3.2-1.297-1.21 0-2.248.432-3.113 1.297-.865.865-1.297 1.902-1.297 3.113v73.768c0 6.919 1.902 13.29 5.707 19.113 3.748 5.823 8.792 10.147 15.134 12.972m45.986-.779c9.167 0 16.95-3.344 23.35-10.031v12.193c0 6.458-2.277 11.964-6.832 16.518-4.612 4.555-10.118 6.832-16.518 6.832h-.26c-4.784 0-9.137-1.355-13.058-4.064-3.459-2.306-6.111-5.333-7.956-9.08-.519-1.096-1.355-1.846-2.508-2.25-1.153-.403-2.306-.316-3.46.26-1.095.519-1.844 1.355-2.248 2.508-.403 1.153-.317 2.306.26 3.46 2.479 5.13 6.111 9.31 10.896 12.539 5.42 3.69 11.445 5.535 18.075 5.535h.26c8.878 0 16.488-3.142 22.83-9.427 6.285-6.342 9.427-13.952 9.427-22.83V73.476c0-1.21-.433-2.249-1.297-3.114-.865-.922-1.932-1.383-3.2-1.383-1.211 0-2.249.461-3.114 1.383-.864.865-1.297 1.903-1.297 3.114v39.608c0 6.4-2.277 11.877-6.832 16.431-4.612 4.555-10.118 6.832-16.518 6.832h-.26c-6.456 0-11.962-2.277-16.517-6.832-4.555-4.554-6.832-10.031-6.832-16.431V73.477c0-1.21-.432-2.249-1.297-3.114-.865-.922-1.903-1.383-3.113-1.383-1.269 0-2.335.461-3.2 1.383-.865.865-1.297 1.903-1.297 3.114v39.608c0 8.879 3.142 16.46 9.426 22.745 6.342 6.341 13.952 9.512 22.83 9.512h.26" font-size="170" font-weight="400" letter-spacing="0" word-spacing="0" fill="#1690c6" stroke="#1690c6" stroke-width="6.668" font-family="MAXWELL REGULAR"/><path d="M797.521 203.377a6.073 6.073 0 0 1-6.075-6.082 6.075 6.075 0 1 1 12.151 0 6.074 6.074 0 0 1-6.076 6.082zm0-24.8c-10.329 0-18.694 8.377-18.694 18.718 0 2.205.4 4.312 1.1 6.277h-64.574c-.941 4.61-2.99 8.777-5.726 12.4l38.21-.005v63.326c4.6.948 8.757 2.992 12.369 5.73v-69.058l37.315.047c10.328 0 18.694-8.376 18.694-18.717 0-10.34-8.366-18.717-18.694-18.717" fill="#ed583a"/><path d="M684.914 203.377a6.076 6.076 0 0 1-6.079-6.082 6.076 6.076 0 0 1 6.079-6.083 6.075 6.075 0 0 1 6.077 6.083 6.075 6.075 0 0 1-6.077 6.082zm87.814-24.827l-87.814.027c-10.33 0-18.699 8.377-18.699 18.718 0 10.34 8.368 18.717 18.699 18.717 10.326 0 18.691-8.377 18.691-18.717 0-2.236-.411-4.37-1.128-6.358h64.521c.95-4.605 2.995-8.765 5.73-12.387m-31.207 137.362a6.076 6.076 0 0 1-6.078-6.083 6.075 6.075 0 0 1 6.078-6.082 6.074 6.074 0 0 1 6.077 6.082 6.075 6.075 0 0 1-6.077 6.083zm0-24.8c-2.217 0-4.334.404-6.305 1.113v-63.86h-12.377l.007 81.06c-.002.136-.021.269-.021.404 0 10.34 8.365 18.72 18.695 18.72 10.326 0 18.694-8.38 18.694-18.72 0-10.342-8.368-18.718-18.694-18.718" fill="#ed583a"/><g style="line-height:125%;-inkscape-font-specification:Theorem NBP"><path style="-inkscape-font-specification:MAXWELL REGULAR" d="M785.5 305.452c1.217 0 2.24-.415 3.07-1.245.83-.885 1.246-1.909 1.246-3.071v-38.599c0-6.253 2.213-11.593 6.64-16.02s9.767-6.64 16.02-6.64h5.23c1.162 0 2.186-.416 3.071-1.246.83-.83 1.246-1.854 1.246-3.071 0-1.218-.415-2.241-1.246-3.071-.885-.83-1.909-1.246-3.07-1.246h-5.23c-8.633 0-15.993 3.044-22.08 9.131-6.143 6.143-9.214 13.53-9.214 22.163v38.599c0 1.162.415 2.186 1.245 3.071.885.83 1.909 1.245 3.071 1.245m56.445-93.134c1.827 0 3.376-.637 4.649-1.91 1.273-1.272 1.91-2.822 1.91-4.648 0-1.826-.637-3.376-1.91-4.648-1.273-1.273-2.822-1.91-4.649-1.91-1.826 0-3.375.637-4.648 1.91-1.273 1.272-1.91 2.822-1.91 4.648 0 1.826.637 3.376 1.91 4.648 1.273 1.273 2.822 1.91 4.648 1.91m4.649 88.486c0 1.273-.443 2.38-1.328 3.32-.941.886-2.048 1.328-3.32 1.328-1.273 0-2.38-.442-3.32-1.328-.886-.94-1.329-2.047-1.329-3.32V230.33c0-1.272.443-2.38 1.328-3.32.94-.885 2.048-1.328 3.32-1.328 1.273 0 2.38.443 3.32 1.328.886.94 1.329 2.048 1.329 3.32v70.474m28.057-38.931c0-6.198 2.185-11.482 6.557-15.854s9.657-6.558 15.855-6.558h.249c6.198 0 11.482 2.186 15.854 6.558 4.427 4.372 6.64 9.656 6.64 15.854v11.538c0 6.198-2.213 11.483-6.64 15.855-4.372 4.427-9.656 6.64-15.854 6.64h-.25c-6.197 0-11.482-2.213-15.854-6.64-4.372-4.372-6.557-9.657-6.557-15.855v-11.538m-4.317 75.786c1.162 0 2.158-.415 2.988-1.245.886-.83 1.329-1.854 1.329-3.071v-38.516c6.087 6.42 13.557 9.63 22.412 9.63h.249c8.577 0 15.91-3.017 21.997-9.049 6.032-6.087 9.048-13.42 9.048-21.997v-11.538c0-8.577-3.016-15.882-9.048-21.914-6.088-6.087-13.42-9.13-21.997-9.13h-.25c-8.577 0-15.882 3.043-21.913 9.13-6.088 6.032-9.131 13.337-9.131 21.914v71.47c0 1.217.415 2.241 1.245 3.071.83.83 1.854 1.245 3.071 1.245m89.649-32.622a3.848 3.848 0 0 0 1.743.415c1.826 0 3.126-.857 3.901-2.573.498-1.051.526-2.13.083-3.237-.387-1.107-1.134-1.91-2.241-2.407-4.538-1.993-8.163-5.092-10.874-9.297-2.712-4.206-4.068-8.771-4.067-13.697v-70.805c0-1.162-.416-2.158-1.246-2.989-.83-.83-1.853-1.245-3.07-1.245-1.163 0-2.16.416-2.99 1.245-.83.83-1.244 1.827-1.244 2.989v70.805c0 6.641 1.826 12.756 5.478 18.345 3.597 5.59 8.44 9.74 14.527 12.451m47.978-.747c8.799 0 16.27-3.21 22.412-9.629v11.704c0 6.198-2.186 11.483-6.557 15.855-4.428 4.372-9.712 6.558-15.855 6.558h-.249c-4.593 0-8.771-1.3-12.534-3.902-3.32-2.213-5.866-5.119-7.637-8.716-.498-1.051-1.3-1.77-2.407-2.158-1.107-.387-2.214-.304-3.32.25-1.052.497-1.771 1.3-2.159 2.406-.387 1.107-.304 2.214.25 3.32 2.379 4.926 5.865 8.938 10.458 12.037 5.202 3.542 10.985 5.312 17.35 5.312h.248c8.522 0 15.827-3.016 21.914-9.047 6.032-6.088 9.048-13.392 9.048-21.915v-71.054c0-1.162-.415-2.158-1.245-2.989-.83-.885-1.854-1.328-3.071-1.328-1.163 0-2.159.443-2.989 1.328-.83.83-1.245 1.827-1.245 2.989v38.017c0 6.143-2.186 11.4-6.557 15.772-4.428 4.372-9.712 6.557-15.855 6.557h-.249c-6.198 0-11.483-2.185-15.854-6.557-4.372-4.372-6.558-9.63-6.558-15.772v-38.017c0-1.162-.415-2.158-1.245-2.989-.83-.885-1.826-1.328-2.988-1.328-1.218 0-2.242.443-3.072 1.328-.83.83-1.245 1.827-1.245 2.989v38.017c0 8.523 3.016 15.8 9.048 21.831 6.087 6.088 13.392 9.131 21.914 9.131h.25" font-size="170" font-weight="400" letter-spacing="0" word-spacing="0" fill="#1690c6" font-family="MAXWELL REGULAR"/></g></svg>