<?xml version="1.0" encoding="utf-8"?>
<!-- Generator: Adobe Illustrator 16.0.0, SVG Export Plug-In . SVG Version: 6.00 Build 0)  -->
<!DOCTYPE svg PUBLIC "-//W3C//DTD SVG 1.1//EN" "http://www.w3.org/Graphics/SVG/1.1/DTD/svg11.dtd">
<svg version="1.1" id="Layer_2" xmlns="http://www.w3.org/2000/svg" xmlns:xlink="http://www.w3.org/1999/xlink" x="0px" y="0px"
	 width="512px" height="512px" viewBox="0 0 512 512" enable-background="new 0 0 512 512" xml:space="preserve">
<path fill-rule="evenodd" clip-rule="evenodd" d="M463.5,257.5c0,5.5-4.4,9.9-9.8,9.9H77.1c-5.4,0-9.8-4.6-9.8-9.9
	c0-5.5,4.4-9.9,9.8-9.9h376.6C459.1,247.6,463.5,252.2,463.5,257.5z"/>
<path d="M265.4,59.4c2.6,0,5.2,1,7.2,3.1c3.8,4,3.6,10.2-0.3,14l-190.6,181l190.6,181c4,3.8,4.1,10,0.3,14c-3.8,4-10.1,4.1-14,0.3
	L52.9,257.5L258.6,62.1C260.5,60.3,262.9,59.4,265.4,59.4z"/>
</svg>
