<?xml version="1.0" encoding="utf-8"?>
<!-- Generator: Adobe Illustrator 16.0.0, SVG Export Plug-In . SVG Version: 6.00 Build 0)  -->
<!DOCTYPE svg PUBLIC "-//W3C//DTD SVG 1.1//EN" "http://www.w3.org/Graphics/SVG/1.1/DTD/svg11.dtd">
<svg version="1.1" id="Layer_1" xmlns="http://www.w3.org/2000/svg" xmlns:xlink="http://www.w3.org/1999/xlink" x="0px" y="0px"
	 width="238px" height="126px" viewBox="0 0 238 126" enable-background="new 0 0 238 126" xml:space="preserve">
<path fill-rule="evenodd" clip-rule="evenodd" fill="#3D9BF9" d="M111.506,120.957c-1.881,0-3.761,0-5.642,0
	c-0.162-0.071-0.324-0.072-0.486,0c-1.88,0-3.761,0-5.641,0c-0.163-0.071-0.324-0.072-0.487,0c-1.88,0-3.761,0-5.641,0
	c-0.163-0.071-0.324-0.072-0.487,0c-1.88,0-3.761,0-5.641,0c-0.163-0.071-0.324-0.072-0.487,0c-1.88,0-3.761,0-5.641,0
	c-0.162-0.071-0.324-0.072-0.486,0c-1.862-0.043-3.725-0.086-5.588-0.13c-0.164-0.146-0.327-0.292-0.491-0.437
	c-0.667-1.17-1.334-2.341-2.002-3.511c-0.071-0.157-0.142-0.314-0.213-0.471c-1.135-1.921-2.27-3.841-3.404-5.76
	c-0.171-0.312-0.342-0.625-0.514-0.936c-0.973-1.711-1.945-3.422-2.917-5.132c-1.078-1.86-2.155-3.719-3.232-5.579
	c-0.096-0.192-0.192-0.382-0.289-0.573c-0.042-0.161-0.129-0.292-0.26-0.394c-1.052-1.868-2.104-3.736-3.156-5.605
	c-0.065-0.184-0.131-0.368-0.197-0.552c1.358-1.843,2.716-3.687,4.074-5.529c0.113-0.152,0.226-0.303,0.339-0.455
	c1.538-1.905,3.076-3.81,4.614-5.715c0.15-0.174,0.301-0.349,0.452-0.522c0.204-0.274,0.408-0.548,0.612-0.823
	c0.151-0.195,0.302-0.39,0.453-0.585c1.015-1.229,2.03-2.46,3.045-3.69c0.232-0.312,0.464-0.624,0.696-0.936
	c0.648-0.819,1.296-1.638,1.945-2.457c1.004-1.245,2.009-2.49,3.013-3.736c0.999-0.548,1.997-1.097,2.996-1.646
	c0.178,0,0.356-0.001,0.535-0.001c1.864,0,3.729,0,5.593,0c0.178,0,0.356,0,0.535,0c1.865,0,3.729,0,5.593,0
	c0.178,0,0.356,0,0.535,0c1.864,0,3.729,0,5.593,0c0.178,0,0.356,0,0.535,0c1.865,0,3.729,0,5.593,0c0.178,0,0.356,0,0.535,0
	c1.864,0,3.729,0,5.593,0c0.178,0,0.356,0,0.535,0.001c1.2,0.535,2.399,1.068,3.599,1.603c0.814,1.071,1.629,2.144,2.444,3.216
	c0.712,0.973,1.424,1.946,2.135,2.919c0.143,0.179,0.286,0.357,0.429,0.536c1.033,1.379,2.067,2.76,3.101,4.14
	c0.151,0.198,0.303,0.398,0.454,0.596c0.2,0.29,0.4,0.579,0.6,0.868c0.14,0.173,0.28,0.345,0.419,0.518
	c1.389,1.872,2.777,3.744,4.166,5.616c0.299,0.384,0.599,0.767,0.898,1.151c1.009,1.642,2.018,3.284,3.027,4.927
	c-0.114,0.182-0.229,0.364-0.343,0.547c-0.883,1.475-1.766,2.951-2.649,4.426c-0.336,0.549-0.672,1.099-1.008,1.647
	c-1.15,1.888-2.299,3.776-3.449,5.664c-0.13,0.112-0.216,0.251-0.261,0.417c-0.474,0.814-0.949,1.627-1.422,2.44
	c-0.794,1.266-1.588,2.531-2.382,3.795c-1.115,1.855-2.231,3.709-3.347,5.564c-0.099,0.186-0.198,0.371-0.297,0.557l0.001-0.002
	c-0.331,0.512-0.661,1.025-0.991,1.537c-0.905,2.508-3.027,2.499-5.148,2.489C111.83,120.884,111.668,120.885,111.506,120.957z"/>
<path fill-rule="evenodd" clip-rule="evenodd" fill="#3761F7" d="M25.682,89.558c-1.856,0-3.712,0-5.569,0c-0.186,0-0.372,0-0.559,0
	c-1.799-0.634-4.187,0.966-5.516-1.452c-0.161-0.34-0.322-0.679-0.483-1.02c-0.123-0.303-0.245-0.605-0.369-0.909
	c-0.029-0.164-0.11-0.296-0.242-0.396c-0.876-1.87-1.751-3.74-2.627-5.61c-0.958-1.965-1.917-3.93-2.875-5.893
	c0.038-0.111,0.005-0.192-0.1-0.243c-0.16-0.358-0.319-0.716-0.479-1.075c-0.817-1.707-1.635-3.416-2.452-5.125
	c-0.016-0.172-0.084-0.319-0.205-0.443c-0.31-1.871-2.728-3.784,0.111-5.592c0.172-0.164,0.346-0.328,0.519-0.491
	c0.845-0.833,1.689-1.665,2.535-2.498c1.218-1.2,2.436-2.4,3.654-3.6c0.835-0.818,1.671-1.636,2.507-2.454
	c1.246-1.211,2.492-2.421,3.737-3.633c0.763-0.736,1.525-1.471,2.287-2.207c1.365-1.343,2.729-2.687,4.094-4.03
	c0.697-0.655,1.393-1.311,2.09-1.966c0.167,0.003,0.325-0.033,0.475-0.107c1.872,0.008,3.744,0.016,5.615,0.023
	c0.169,0.002,0.339,0.003,0.508,0.005c1.875,0.01,3.75,0.019,5.625,0.029c0.166,0.002,0.332,0.005,0.497,0.008
	c1.88,0.013,3.76,0.026,5.641,0.04c0,0,0.227,0.069,0.227,0.069l0.23-0.059c3.928,0.046,7.856,0.093,11.784,0.139
	c1.631,0.248,3.506-0.062,4.376,1.919c0.753,1.154,1.507,2.307,2.261,3.461c0.544,0.852,1.089,1.703,1.634,2.554
	c0.132,0.175,0.264,0.351,0.396,0.526c1.066,1.687,2.132,3.374,3.198,5.06c0.208,0.251,0.416,0.503,0.624,0.754
	c0,0,0.031,0.082,0.032,0.08c-0.011,0.113,0.038,0.187,0.149,0.221c1.21,1.881,2.421,3.763,3.631,5.645
	c0.12,0.18,0.239,0.36,0.358,0.541c1.109,1.432,0.885,2.692-0.411,3.901c-0.475,0.444-0.783,1.067-1.167,1.608
	c-0.139,0.168-0.277,0.336-0.416,0.504c-0.661,0.818-1.321,1.636-1.982,2.455c-1.019,1.233-2.037,2.467-3.056,3.7
	c-0.998,1.207-1.995,2.413-2.993,3.619c-0.692,0.842-1.385,1.684-2.078,2.526c-2.01,2.377-4.106,4.688-5.995,7.159
	c-1.104,1.443-2.288,2.392-4.16,2.252c-0.186,0.001-0.371,0.002-0.556,0.003c-1.856,0-3.712,0-5.568,0c-0.186,0-0.373,0-0.559,0
	c-1.856,0-3.712,0-5.568,0c-0.187,0-0.373,0-0.559,0c-1.856,0-3.712,0-5.569,0c-0.186,0-0.373,0-0.559,0c-1.856,0-3.712,0-5.569,0
	C26.055,89.558,25.868,89.558,25.682,89.558z"/>
<path fill-rule="evenodd" clip-rule="evenodd" fill="#010101" d="M166.691,89.162c-3.934,0.043-7.869,0.085-11.803,0.128
	c-0.164,0.002-0.329,0.005-0.493,0.008c-1.876,0.012-3.752,0.023-5.628,0.035c-0.168,0.002-0.337,0.004-0.505,0.007
	c-1.873,0.008-3.745,0.017-5.618,0.025c-0.17,0.001-0.342,0.002-0.513,0.003c-2.494,0.39-4.194-0.816-5.528-2.754
	c-0.205-0.264-0.408-0.528-0.613-0.792c-1.401-1.881-2.803-3.762-4.204-5.643c-0.602-0.764-1.203-1.529-1.803-2.292
	c-0.992-1.312-1.983-2.624-2.974-3.937c-1.066-1.379-2.132-2.759-3.199-4.138c-0.594-0.803-1.188-1.604-1.782-2.407
	c-0.778-1.138-1.557-2.276-2.346-3.429c0.377-0.717,0.753-1.432,1.128-2.146c1.02-1.452,2.039-2.904,3.059-4.356
	c0.529-0.752,1.058-1.504,1.588-2.256c1.16-1.672,2.319-3.345,3.479-5.018c0.281-0.399,0.562-0.798,0.842-1.197
	c0.152-0.058,0.211-0.166,0.179-0.325c0.197-0.259,0.394-0.517,0.591-0.775c1.061-1.52,2.122-3.038,3.183-4.557l0.129-0.21
	c0.71-0.489,1.421-0.979,2.132-1.468c2.22,0.019,4.44,0.037,6.66,0.056c3.912,0.018,7.823,0.036,11.734,0.054
	c0.17,0.001,0.342,0.003,0.513,0.005c1.873,0.005,3.745,0.011,5.617,0.017c0.171,0.001,0.34,0.002,0.511,0.003
	c2.03,0.055,4.061,0.11,6.09,0.165c0.579,0.326,1.157,0.652,1.736,0.977c0.001-0.001-0.021,0.093-0.021,0.093
	c1.318,1.639,2.635,3.277,3.953,4.917c0.498,0.527,0.996,1.054,1.494,1.581c1.569,1.688,3.138,3.377,4.708,5.065
	c0.325,0.347,0.65,0.693,0.976,1.04c1.701,1.829,3.402,3.659,5.103,5.488c0.188,0.21,0.375,0.419,0.564,0.629
	c0.617,0.782,1.233,1.564,1.861,2.359c-0.347,0.833-0.698,1.678-1.05,2.523c-0.2,0.393-0.402,0.785-0.603,1.177
	c-0.357,0.687-0.715,1.374-1.073,2.061c-0.684,1.352-1.367,2.702-2.051,4.053c-0.93,1.907-1.859,3.815-2.789,5.723
	c-0.116,0.176-0.231,0.352-0.347,0.528c-0.228,0.503-0.457,1.008-0.685,1.512c-0.679,1.362-1.357,2.725-2.036,4.087
	c-1.175,1.157-1.123,3.691-3.688,3.288c-0.099-0.079-0.195-0.076-0.29,0.007c-1.926,0.024-3.852,0.048-5.778,0.072
	C166.958,88.999,166.822,89.004,166.691,89.162z"/>
<path fill-rule="evenodd" clip-rule="evenodd" fill="#3D9BF9" d="M173.188,14.478c1.354,1.321,2.708,2.642,4.062,3.963
	c0.168,0.161,0.336,0.322,0.504,0.484c-0.895,1.842-1.789,3.685-2.683,5.527c-0.099,0.182-0.198,0.363-0.296,0.545
	c-0.51,0.835-1.021,1.67-1.531,2.505c-0.725,1.187-1.45,2.373-2.175,3.56c-1.149,1.896-2.299,3.791-3.448,5.687
	c-0.127,0.179-0.253,0.358-0.38,0.537c-0.108,0.102-0.154,0.227-0.139,0.375c-0.858,0.23-1.713,0.638-2.576,0.659
	c-3.545,0.087-7.092,0.057-10.638,0.069c-1.703-0.001-3.405-0.003-5.106-0.004c-0.178,0-0.355,0-0.533,0
	c-1.866-0.005-3.731-0.011-5.597-0.017c-2.218-0.008-4.436-0.016-6.653-0.024c-0.806-0.38-1.611-0.76-2.417-1.139
	c-1.205-1.403-2.409-2.805-3.613-4.208c-0.525-0.627-1.05-1.254-1.574-1.881c-0.154-0.169-0.308-0.339-0.462-0.508
	c-1.21-1.407-2.419-2.814-3.629-4.222c-0.153-0.181-0.306-0.361-0.459-0.542c-0.213-0.272-0.427-0.545-0.641-0.818
	c-0.162-0.174-0.323-0.348-0.485-0.522c-1.512-1.752-3.024-3.504-4.536-5.256c-0.001-0.414-0.001-0.828-0.002-1.242
	c1.398-1.734,2.796-3.469,4.195-5.204c0.142-0.171,0.283-0.342,0.425-0.513c0.352-0.45,0.704-0.899,1.056-1.35
	c0.15-0.186,0.3-0.372,0.451-0.557c1.014-1.247,2.027-2.494,3.04-3.741c0.152-0.176,0.304-0.352,0.456-0.527
	c0.689-0.859,1.377-1.718,2.066-2.577c0.194-0.265,0.387-0.529,0.581-0.793C132.3,2.494,134.15,2.247,136.001,2
	c0.172,0,0.345,0,0.517,0c1.871,0,3.741,0,5.611,0c0.172,0,0.345,0,0.517,0c1.871,0,3.741,0,5.611,0c0.172,0,0.345,0,0.517,0
	c1.871,0,3.741,0,5.611,0c0.172,0,0.345,0,0.517,0c1.862,0.053,3.723,0.107,5.585,0.16c0.168,0.149,0.336,0.298,0.505,0.447
	c1.197,1.176,2.393,2.352,3.589,3.528c0.859,0.839,1.718,1.679,2.577,2.518c1.373,1.328,2.747,2.655,4.12,3.982
	C171.915,13.25,172.551,13.864,173.188,14.478z"/>
<path fill-rule="evenodd" clip-rule="evenodd" fill="#3EC0F9" d="M191.653,20.966c3.909,0.091,7.82,0.181,11.729,0.272
	c0.187,0.007,0.372,0.015,0.558,0.021c1.861,0.022,3.721,0.045,5.581,0.067c0.18,0.005,0.358,0.01,0.537,0.014
	c2.566-0.469,3.746,1.808,5.567,2.812c0.168,0.136,0.337,0.272,0.505,0.409l-0.012-0.013c0.162,0.163,0.324,0.326,0.485,0.489
	c1.724,1.543,3.448,3.087,5.171,4.63c0.17,0.158,0.34,0.317,0.51,0.476c0.174,0.166,0.35,0.331,0.524,0.497
	c0.346,0.323,0.691,0.647,1.037,0.971c1.358,1.195,2.717,2.39,4.075,3.585c0.174,0.166,0.347,0.332,0.52,0.497
	c0.457,0.382,0.913,0.764,1.371,1.146c0.173,0.156,0.347,0.312,0.521,0.469c0.633,0.65,1.186,1.42,1.92,1.925
	c1.45,0.998,1.56,2.198,0.86,3.646c-0.039,0.168-0.078,0.337-0.116,0.505c-0.786,1.872-1.571,3.743-2.357,5.614
	c-0.046,0.177-0.091,0.354-0.136,0.531c-0.729,1.876-1.458,3.752-2.188,5.628c-0.106,0.081-0.136,0.183-0.088,0.308
	c0,0,0.043,0.091,0.045,0.092c-0.875,2.038-1.753,4.074-2.63,6.111c-1.11,0.235-2.22,0.471-3.33,0.706c-0.179,0-0.356,0-0.535,0
	c-1.865-0.001-3.729-0.002-5.594-0.004c-0.177,0-0.355,0-0.532-0.001c-1.866-0.002-3.731-0.005-5.597-0.008
	c-0.177,0-0.352,0-0.529,0c-1.867-0.002-3.734-0.005-5.601-0.008c-0.174,0-0.35,0-0.524-0.001c-1.868-0.003-3.737-0.005-5.605-0.008
	c-0.174,0-0.347,0-0.521-0.001c-1.682-0.039-3.362-0.078-5.044-0.117c-0.294-0.205-0.589-0.409-0.884-0.614
	c0,0-0.022-0.027-0.023-0.025c-0.217-0.282-0.431-0.567-0.646-0.852c-1.7-1.76-3.401-3.521-5.102-5.281
	c-0.109-0.12-0.218-0.24-0.328-0.361c-1.762-1.865-3.523-3.73-5.286-5.596c-0.18-0.174-0.358-0.349-0.538-0.523
	c-1.729-1.854-3.458-3.708-5.186-5.562c-0.487-0.51-0.975-1.02-1.462-1.529c-1.806-1.367-0.614-2.725,0.013-4.084
	c0.173-0.318,0.345-0.636,0.518-0.954c1.028-1.714,2.057-3.428,3.086-5.142c0.188-0.339,0.376-0.678,0.563-1.017
	c0.675-1.158,1.352-2.317,2.027-3.475c0.523-0.879,1.047-1.759,1.571-2.639c1.405-1.326,1.534-4.208,4.47-3.667
	c0.169,0.001,0.34,0.002,0.51,0.003c1.875,0.016,3.751,0.031,5.626,0.046l0.244,0.054L191.653,20.966z"/>
</svg>
