<?xml version="1.0" encoding="utf-8"?>
<!-- Generator: Adobe Illustrator 16.0.0, SVG Export Plug-In . SVG Version: 6.00 Build 0)  -->
<!DOCTYPE svg PUBLIC "-//W3C//DTD SVG 1.1//EN" "http://www.w3.org/Graphics/SVG/1.1/DTD/svg11.dtd">
<svg version="1.1" id="Layer_1" xmlns="http://www.w3.org/2000/svg" xmlns:xlink="http://www.w3.org/1999/xlink" x="0px" y="0px"
	 width="24px" height="24px" viewBox="0 0 24 24" enable-background="new 0 0 24 24" xml:space="preserve">
<title>ic_modality_car_black_24dp</title>
<desc>Created with Sketch.</desc>
<g>
	<path d="M23.042,11.145c-2.239-4.069-5.634-6.192-10.276-6.329c-4.889-0.145-8.702,1.67-11.23,5.992
		c-0.774,1.324-0.695,2.448,0.144,3.686c2.535,3.741,6.036,5.579,10.656,5.489c4.524,0.104,8.043-1.869,10.539-5.741
		C23.526,13.23,23.661,12.271,23.042,11.145z M21.987,13.21c-1.944,3.341-4.848,5.098-8.677,5.342
		c-4.61,0.297-8.389-1.135-10.865-5.266c-0.333-0.557-0.408-1.012-0.062-1.619c2.192-3.858,5.662-5.352,8.877-5.443
		c5.248,0,8.5,1.737,10.724,5.361C22.339,12.164,22.333,12.619,21.987,13.21z"/>
	<path d="M12.268,7.779C9.581,7.77,7.586,9.772,7.6,12.461c0.014,2.617,2.042,4.582,4.7,4.555c2.563-0.028,4.566-2.068,4.543-4.63
		C16.817,9.791,14.828,7.786,12.268,7.779z M12.245,15.763c-1.932-0.015-3.376-1.429-3.378-3.304
		c-0.002-1.903,1.529-3.446,3.41-3.437c1.835,0.01,3.287,1.511,3.301,3.411C15.592,14.333,14.145,15.778,12.245,15.763z"/>
	<circle cx="12.222" cy="12.397" r="1.129"/>
</g>
</svg>
