<svg width="200" height="100" xmlns="http://www.w3.org/2000/svg">
 <g>
  <title>Earth</title>
  <line stroke="#000" id="svg_4" y2="12.26227" x2="80.04973" y1="12.26227" x1="83.59812" fill="none"/>
  <line stroke="#000" id="svg_21" y2="12.26227" x2="64.88844" y1="12.26227" x1="83.59812" fill="none"/>
  <g stroke="null" id="svg_24">
   <g stroke="null" id="svg_15">
    <line stroke="#000" id="svg_5" y2="15.81066" x2="35.53361" y1="10.97195" x1="35.53361" fill="none"/>
    <line stroke="#000" id="svg_11" y2="17.74615" x2="37.46909" y1="7.10099" x1="37.46909" fill="none"/>
    <line stroke="#000" id="svg_12" y2="20.97195" x2="40.37232" y1="3.23002" x1="40.04974" fill="none"/>
   </g>
   <line stroke="#000" id="svg_16" y2="11.61711" x2="41.98522" y1="11.61711" x1="51.98522" fill="none"/>
  </g>
  <rect stroke="#000" id="svg_25" height="11.6129" width="26.12903" y="5.72264" x="53.59812" fill="none"/>
  <line stroke="#000" id="svg_26" y2="10.09278" x2="69.43518" y1="12.38633" x1="64.05721" fill="none"/>
  <line stroke="#000" id="svg_27" y2="15.44591" x2="69.16076" y1="12.04856" x1="64.34823" fill="none"/>
  <line stroke="#000" id="svg_29" y2="15.68679" x2="69.33487" y1="9.70104" x1="69.33487" fill="none"/>
  <rect stroke="#000" id="svg_30" height="2.11262" width="2.55275" y="11.2855" x="66.51804" fill="none"/>
  <rect stroke="#000" id="svg_31" height="2.11262" width="2.55275" y="11.2855" x="66.51804" fill="none"/>
  <rect width="0" stroke="#000" id="svg_32" height="1.40841" y="12.25378" x="67.92646" fill="none"/>
  <ellipse stroke="#000" ry="1.10032" rx="1.05631" id="svg_33" cy="13.17805" cx="67.66238" fill="none"/>
  <line stroke="#000" id="svg_34" y2="12.86996" x2="68.54264" y1="12.95799" x1="66.34199" fill="none"/>
  <line stroke="#000" id="svg_35" y2="14.54245" x2="69.33487" y1="14.27838" x1="68.10251" fill="none"/>
  <line stroke="#000" fill="none" x1="113.40022" y1="74.48185" x2="113.49539" y2="99.80871" id="svg_7" stroke-linejoin="undefined" stroke-linecap="undefined"/>
  <ellipse ry="10.44386" rx="10.18277" id="svg_37" cy="55.80982" cx="106.07042" stroke="#000" fill="none"/>
  <ellipse ry="10.44386" rx="10.18277" id="svg_39" cy="55.54872" cx="121.86676" stroke="#000" fill="none"/>
  <ellipse ry="10.44386" rx="10.18277" id="svg_40" cy="69.77848" cx="113.51167" stroke="#000" fill="none"/>
  <line id="svg_42" y2="74.86987" x2="113.75102" y1="71.21452" x1="108.65963" stroke="#000" fill="none"/>
  <line id="svg_44" y2="70.69232" x2="117.92856" y1="74.60877" x1="113.09828" stroke="#000" fill="none"/>
  <line stroke-linecap="undefined" stroke-linejoin="undefined" id="svg_45" y2="12.33269" x2="83.3136" y1="54.98594" x1="106.46078" stroke="#000" fill="none"/>
  <line stroke-linecap="undefined" stroke-linejoin="undefined" id="svg_47" y2="90.48696" x2="134.93963" y1="74.23191" x1="113.35292" stroke="#000" fill="none"/>
  <g stroke="null" id="svg_53">
   <g stroke="null" id="svg_51">
    <line stroke="#000" id="svg_48" y2="94.20374" x2="156.99135" y1="89.22316" x1="156.99135" fill="none"/>
    <line stroke="#000" id="svg_49" y2="96.19596" x2="154.30657" y1="85.23871" x1="154.30657" fill="none"/>
    <line stroke="#000" id="svg_50" y2="99.51634" x2="150.2794" y1="81.25425" x1="150.72687" fill="none"/>
   </g>
   <line stroke="#000" id="svg_52" y2="89.88724" x2="148.04209" y1="89.88724" x1="134.17073" fill="none"/>
  </g>
  <line stroke-linecap="undefined" stroke-linejoin="undefined" id="svg_54" y2="29.62806" x2="122.19567" y1="44.97283" x1="122.19567" stroke="#000" fill="none"/>
  <line stroke-linecap="undefined" stroke-linejoin="undefined" id="svg_55" y2="29.1079" x2="121.93559" y1="29.49802" x1="167.7098" stroke="#000" fill="none"/>
  <line stroke-linecap="undefined" stroke-linejoin="undefined" id="svg_57" y2="34.17948" x2="133.37914" y1="79.30349" x1="88.64525" stroke="#000" fill="none"/>
  <line stroke-linecap="undefined" stroke-linejoin="undefined" id="svg_58" y2="39.64117" x2="132.20878" y1="34.5696" x1="133.11906" stroke="#000" fill="none"/>
  <line stroke-linecap="undefined" stroke-linejoin="undefined" id="svg_59" y2="34.43956" x2="133.11906" y1="35.60992" x1="127.26725" stroke="#000" fill="none"/>
  <line stroke-linecap="undefined" stroke-linejoin="undefined" id="svg_60" y2="-0.15119" x2="105.81058" y1="44.71275" x1="105.29042" stroke="#000" fill="none"/>
  <line stroke-linecap="undefined" stroke-linejoin="undefined" id="svg_61" y2="13.11293" x2="121.02531" y1="13.37301" x1="121.02531" stroke="#000" fill="none"/>
 </g>

</svg>