<svg id="Laag_1" data-name="Laag 1" xmlns="http://www.w3.org/2000/svg" viewBox="0 0 361.1 752.7"><title>17003_verblijfsobjectafbakening_cert</title><polygon points="0 752.7 361.1 752.7 361.1 0 0 0 0 752.7" style="fill:#d9ebf7"/><polygon points="86.7 36.7 148.9 36.7 148.9 12.4 86.7 12.4 86.7 36.7" style="fill:#01689b"/><polygon points="36.7 153.2 224 153.2 224 115.8 36.7 115.8 36.7 153.2" style="fill:#007bc7"/><polygon points="36.7 241.3 224 241.3 224 183.7 36.7 183.7 36.7 241.3" style="fill:#007bc7"/><polygon points="36.7 432.1 224 432.1 224 394.8 36.7 394.8 36.7 432.1" style="fill:#007bc7"/><polygon points="189.5 689.7 325.6 689.7 325.6 652.6 189.5 652.6 189.5 689.7" style="fill:#d52b1e"/><polygon points="36.7 308.9 224 308.9 224 271.8 36.7 271.8 36.7 308.9" style="fill:#007bc7"/><polygon points="36.7 499.7 224 499.7 224 462.6 36.7 462.6 36.7 499.7" style="fill:#007bc7"/><polygon points="36.7 567.3 224 567.3 224 530.2 36.7 530.2 36.7 567.3" style="fill:#007bc7"/><polygon points="36.7 364.4 224 364.4 224 340.5 36.7 340.5 36.7 364.4" style="fill:#007bc7"/><polygon points="36.1 85.4 223.4 85.4 223.4 48.7 36.1 48.7 36.1 85.4" style="fill:#007bc7"/><polygon points="36.7 689.7 172.7 689.7 172.7 652.6 36.7 652.6 36.7 689.7" style="fill:#39870c"/><polygon points="86.7 739.5 148.9 739.5 148.9 715.2 86.7 715.2 86.7 739.5" style="fill:#01689b"/><text transform="translate(45.41 129.85)" style="isolation:isolate;font-size:9px;fill:#fff;font-family:RijksoverheidSansText-Regular, RijksoverheidSansText, calibri, arial, sans-serif">2.</text><g style="isolation:isolate"><text transform="translate(58.42 129.85)" style="isolation:isolate;font-size:9px;fill:#fff;font-family:RijksoverheidSansText-Regular, RijksoverheidSansText, calibri, arial, sans-serif">Is er binnen de ruimte sprake van aan-</text></g><text transform="translate(58.42 140.64)" style="isolation:isolate;font-size:9px;fill:#fff;font-family:RijksoverheidSansText-Regular, RijksoverheidSansText, calibri, arial, sans-serif">eengesloten samenhangend gebruik?</text><text transform="translate(45.41 199.05)" style="isolation:isolate;font-size:9px;fill:#fff;font-family:RijksoverheidSansText-Regular, RijksoverheidSansText, calibri, arial, sans-serif">3.</text><text transform="translate(58.42 199.05)" style="isolation:isolate;font-size:9px;fill:#fff;font-family:RijksoverheidSansText-Regular, RijksoverheidSansText, calibri, arial, sans-serif">Is de ruimte ontsloten via een eigen</text><g style="isolation:isolate"><text transform="translate(58.42 209.85)" style="isolation:isolate;font-size:9px;fill:#fff;font-family:RijksoverheidSansText-Regular, RijksoverheidSansText, calibri, arial, sans-serif"><tspan xml:space="preserve">toegang vanaf de openbare weg, een</tspan></text></g><g style="isolation:isolate"><text transform="translate(58.42 220.65)" style="isolation:isolate;font-size:9px;fill:#fff;font-family:RijksoverheidSansText-Regular, RijksoverheidSansText, calibri, arial, sans-serif">eigen erf en/of een gedeelde verkeers-</text></g><g style="isolation:isolate"><text transform="translate(58.42 231.45)" style="isolation:isolate;font-size:9px;fill:#fff;font-family:RijksoverheidSansText-Regular, RijksoverheidSansText, calibri, arial, sans-serif">ruimte of geldt er een specifieke regel?</text></g><text transform="translate(45.41 287.17)" style="isolation:isolate;font-size:9px;fill:#fff;font-family:RijksoverheidSansText-Regular, RijksoverheidSansText, calibri, arial, sans-serif">4.</text><text transform="translate(58.42 287.17)" style="isolation:isolate;font-size:9px;fill:#fff;font-family:RijksoverheidSansText-Regular, RijksoverheidSansText, calibri, arial, sans-serif">Is de ruimte dermate groot dat een</text><text transform="translate(58.42 297.98)" style="isolation:isolate;font-size:9px;fill:#fff;font-family:RijksoverheidSansText-Regular, RijksoverheidSansText, calibri, arial, sans-serif">persoon er duurzaam kan verblijven?</text><text transform="translate(45.41 354.49)" style="isolation:isolate;font-size:9px;fill:#fff;font-family:RijksoverheidSansText-Regular, RijksoverheidSansText, calibri, arial, sans-serif">5.</text><text transform="translate(58.42 354.49)" style="isolation:isolate;font-size:9px;fill:#fff;font-family:RijksoverheidSansText-Regular, RijksoverheidSansText, calibri, arial, sans-serif">Heeft de ruimte een afsluitbare toegang?</text><text transform="translate(45.41 409.33)" style="isolation:isolate;font-size:9px;fill:#fff;font-family:RijksoverheidSansText-Regular, RijksoverheidSansText, calibri, arial, sans-serif">6.</text><text transform="translate(58.42 409.33)" style="isolation:isolate;font-size:9px;fill:#fff;font-family:RijksoverheidSansText-Regular, RijksoverheidSansText, calibri, arial, sans-serif">Kan de ruimte onderwerp zijn van</text><text transform="translate(58.42 420.14)" style="isolation:isolate;font-size:9px;fill:#fff;font-family:RijksoverheidSansText-Regular, RijksoverheidSansText, calibri, arial, sans-serif">goederenrechtelijke rechtshandelingen?</text><text transform="translate(45.41 477.96)" style="isolation:isolate;font-size:9px;fill:#fff;font-family:RijksoverheidSansText-Regular, RijksoverheidSansText, calibri, arial, sans-serif">7.</text><text transform="translate(58.42 477.96)" style="isolation:isolate;font-size:9px;fill:#fff;font-family:RijksoverheidSansText-Regular, RijksoverheidSansText, calibri, arial, sans-serif;letter-spacing:-0.02001953125em">Is de ruimte ondersteunend aan een nabij-</text><text transform="translate(58.42 488.77)" style="isolation:isolate;font-size:9px;fill:#fff;font-family:RijksoverheidSansText-Regular, RijksoverheidSansText, calibri, arial, sans-serif">gelegen verblijfsobject, stand- of ligplaats?</text><text transform="translate(45.41 545.53)" style="isolation:isolate;font-size:9px;fill:#fff;font-family:RijksoverheidSansText-Regular, RijksoverheidSansText, calibri, arial, sans-serif">8.</text><text transform="translate(58.42 545.53)" style="isolation:isolate;font-size:9px;fill:#fff;font-family:RijksoverheidSansText-Regular, RijksoverheidSansText, calibri, arial, sans-serif">Is de ruimte de kleinste eenheid die aan</text><text transform="translate(58.42 556.34)" style="isolation:isolate;font-size:9px;fill:#fff;font-family:RijksoverheidSansText-Regular, RijksoverheidSansText, calibri, arial, sans-serif">alle criteria voldoet?</text><text transform="translate(105.72 28.2)" style="isolation:isolate;font-size:9px;fill:#fff;font-family:RijksoverheidSansText-Bold, RijksoverheidSansText, calibri, arial, sans-serif;font-weight:700">START</text><polygon points="102.6 105 132.6 105 132.6 89.1 102.6 89.1 102.6 105" style="fill:#39870c"/><text transform="translate(113.93 99.49)" style="isolation:isolate;font-size:9px;fill:#fff;font-family:RijksoverheidSansText-Bold, RijksoverheidSansText, calibri, arial, sans-serif;font-weight:700">Ja</text><polygon points="137.5 105 167.6 105 167.6 89.1 137.5 89.1 137.5 105" style="fill:#d52b1e"/><text transform="translate(145.17 99.49)" style="isolation:isolate;font-size:9px;fill:#fff;font-family:RijksoverheidSansText-Bold, RijksoverheidSansText, calibri, arial, sans-serif;font-weight:700">Nee</text><text transform="translate(45.41 62.72)" style="isolation:isolate;font-size:9px;fill:#fff;font-family:RijksoverheidSansText-Regular, RijksoverheidSansText, calibri, arial, sans-serif">1.</text><text transform="translate(58.42 62.72)" style="isolation:isolate;font-size:9px;fill:#fff;font-family:RijksoverheidSansText-Regular, RijksoverheidSansText, calibri, arial, sans-serif">Betreft de ruimte een of meer binnen-</text><text transform="translate(58.42 73.53)" style="isolation:isolate;font-size:9px;fill:#fff;font-family:RijksoverheidSansText-Regular, RijksoverheidSansText, calibri, arial, sans-serif">ruimten binnen een of meer panden?</text><polygon points="102.6 172.8 132.6 172.8 132.6 157 102.6 157 102.6 172.8" style="fill:#39870c"/><text transform="translate(113.93 167.32)" style="isolation:isolate;font-size:9px;fill:#fff;font-family:RijksoverheidSansText-Bold, RijksoverheidSansText, calibri, arial, sans-serif;font-weight:700">Ja</text><polygon points="137.5 172.8 167.6 172.8 167.6 157 137.5 157 137.5 172.8" style="fill:#d52b1e"/><text transform="translate(145.17 167.32)" style="isolation:isolate;font-size:9px;fill:#fff;font-family:RijksoverheidSansText-Bold, RijksoverheidSansText, calibri, arial, sans-serif;font-weight:700">Nee</text><polygon points="102.6 260.9 132.6 260.9 132.6 245.1 102.6 245.1 102.6 260.9" style="fill:#39870c"/><text transform="translate(113.93 255.45)" style="isolation:isolate;font-size:9px;fill:#fff;font-family:RijksoverheidSansText-Bold, RijksoverheidSansText, calibri, arial, sans-serif;font-weight:700">Ja</text><polygon points="137.5 260.9 167.6 260.9 167.6 245.1 137.5 245.1 137.5 260.9" style="fill:#d52b1e"/><text transform="translate(145.17 255.45)" style="isolation:isolate;font-size:9px;fill:#fff;font-family:RijksoverheidSansText-Bold, RijksoverheidSansText, calibri, arial, sans-serif;font-weight:700">Nee</text><polygon points="102.6 328.5 132.6 328.5 132.6 312.7 102.6 312.7 102.6 328.5" style="fill:#39870c"/><text transform="translate(113.93 323.03)" style="isolation:isolate;font-size:9px;fill:#fff;font-family:RijksoverheidSansText-Bold, RijksoverheidSansText, calibri, arial, sans-serif;font-weight:700">Ja</text><polygon points="137.5 328.5 167.6 328.5 167.6 312.7 137.5 312.7 137.5 328.5" style="fill:#d52b1e"/><text transform="translate(145.17 323.03)" style="isolation:isolate;font-size:9px;fill:#fff;font-family:RijksoverheidSansText-Bold, RijksoverheidSansText, calibri, arial, sans-serif;font-weight:700">Nee</text><polygon points="102.6 384 132.6 384 132.6 368.1 102.6 368.1 102.6 384" style="fill:#39870c"/><text transform="translate(113.93 378.5)" style="isolation:isolate;font-size:9px;fill:#fff;font-family:RijksoverheidSansText-Bold, RijksoverheidSansText, calibri, arial, sans-serif;font-weight:700">Ja</text><polygon points="137.5 384 167.6 384 167.6 368.1 137.5 368.1 137.5 384" style="fill:#d52b1e"/><text transform="translate(145.17 378.5)" style="isolation:isolate;font-size:9px;fill:#fff;font-family:RijksoverheidSansText-Bold, RijksoverheidSansText, calibri, arial, sans-serif;font-weight:700">Nee</text><polygon points="102.6 451.7 132.6 451.7 132.6 435.9 102.6 435.9 102.6 451.7" style="fill:#39870c"/><text transform="translate(113.93 446.24)" style="isolation:isolate;font-size:9px;fill:#fff;font-family:RijksoverheidSansText-Bold, RijksoverheidSansText, calibri, arial, sans-serif;font-weight:700">Ja</text><polygon points="137.5 451.7 167.6 451.7 167.6 435.9 137.5 435.9 137.5 451.7" style="fill:#d52b1e"/><text transform="translate(145.17 446.24)" style="isolation:isolate;font-size:9px;fill:#fff;font-family:RijksoverheidSansText-Bold, RijksoverheidSansText, calibri, arial, sans-serif;font-weight:700">Nee</text><polygon points="102.6 519.3 132.6 519.3 132.6 503.4 102.6 503.4 102.6 519.3" style="fill:#39870c"/><text transform="translate(110.22 513.81)" style="isolation:isolate;font-size:9px;fill:#fff;font-family:RijksoverheidSansText-Bold, RijksoverheidSansText, calibri, arial, sans-serif;font-weight:700">Nee</text><polygon points="137.5 519.3 167.6 519.3 167.6 503.4 137.5 503.4 137.5 519.3" style="fill:#d52b1e"/><text transform="translate(148.87 513.81)" style="isolation:isolate;font-size:9px;fill:#fff;font-family:RijksoverheidSansText-Bold, RijksoverheidSansText, calibri, arial, sans-serif;font-weight:700">Ja</text><polygon points="102.6 586.2 132.6 586.2 132.6 570.4 102.6 570.4 102.6 586.2" style="fill:#39870c"/><text transform="translate(113.93 580.73)" style="isolation:isolate;font-size:9px;fill:#fff;font-family:RijksoverheidSansText-Bold, RijksoverheidSansText, calibri, arial, sans-serif;font-weight:700">Ja</text><polygon points="137.5 586.2 167.6 586.2 167.6 570.4 137.5 570.4 137.5 586.2" style="fill:#d52b1e"/><text transform="translate(145.17 580.73)" style="isolation:isolate;font-size:9px;fill:#fff;font-family:RijksoverheidSansText-Bold, RijksoverheidSansText, calibri, arial, sans-serif;font-weight:700">Nee</text><line x1="117.8" y1="112.5" x2="117.8" y2="105" style="fill:none;stroke:#000;stroke-width:0.5px"/><polyline points="117.8 115.8 121.4 111.9 114.1 111.9 117.8 115.8"/><path d="M167.5,97.1H249m0,484.2V96.8M117.8,180.3v-7.5" transform="translate(0 0)" style="fill:none;stroke:#000;stroke-width:0.5px"/><polyline points="117.8 183.7 121.4 179.7 114.1 179.7 117.8 183.7"/><path d="M167.5,164.9H249M117.8,268.4v-7.5" transform="translate(0 0)" style="fill:none;stroke:#000;stroke-width:0.5px"/><polyline points="117.8 271.8 121.4 267.9 114.1 267.9 117.8 271.8"/><path d="M167.5,253H249M117.8,336v-7.5" transform="translate(0 0)" style="fill:none;stroke:#000;stroke-width:0.5px"/><polyline points="117.8 339.4 121.4 335.4 114.1 335.4 117.8 339.4"/><path d="M167.5,320.6H249M117.8,391.5V384" transform="translate(0 0)" style="fill:none;stroke:#000;stroke-width:0.5px"/><polyline points="117.8 394.8 121.4 390.9 114.1 390.9 117.8 394.8"/><path d="M167.5,376.1H249M117.8,459.2v-7.5" transform="translate(0 0)" style="fill:none;stroke:#000;stroke-width:0.5px"/><polyline points="117.8 462.6 121.4 458.7 114.1 458.7 117.8 462.6"/><path d="M167.5,443.8H249m-131.2,83v-7.5" transform="translate(0 0)" style="fill:none;stroke:#000;stroke-width:0.5px"/><polyline points="117.8 530.2 121.4 526.2 114.1 526.2 117.8 530.2"/><path d="M167.5,511.4H249M117.8,649.2v-7.5" transform="translate(0 0)" style="fill:none;stroke:#000;stroke-width:0.5px"/><polyline points="117.8 652.6 121.4 648.6 114.1 648.6 117.8 652.6"/><path d="M167.5,578.3H249m0,70.9V578.3" transform="translate(0 0)" style="fill:none;stroke:#000;stroke-width:0.5px"/><polyline points="249.1 652.6 252.7 648.6 245.4 648.6 249.1 652.6"/><path d="M117.6,702.7H249m0,.2V689.7M117.8,45.4V36.8" transform="translate(0 0)" style="fill:none;stroke:#000;stroke-width:0.5px"/><polyline points="117.8 48.7 121.4 44.8 114.1 44.8 117.8 48.7"/><line x1="117.8" y1="711.8" x2="117.8" y2="689.7" style="fill:none;stroke:#000;stroke-width:0.5px"/><polyline points="117.8 715.2 121.4 711.2 114.1 711.2 117.8 715.2"/><text transform="translate(104.93 730.96)" style="isolation:isolate;font-size:9px;fill:#fff;font-family:RijksoverheidSansText-Bold, RijksoverheidSansText, calibri, arial, sans-serif;font-weight:700">KLAAR</text><text transform="translate(45.41 667.05)" style="isolation:isolate;font-size:9px;fill:#fff;font-family:RijksoverheidSansText-Regular, RijksoverheidSansText, calibri, arial, sans-serif">10.</text><g style="isolation:isolate"><text transform="translate(58.42 667.05)" style="isolation:isolate;font-size:9px;fill:#fff;font-family:RijksoverheidSansText-Regular, RijksoverheidSansText, calibri, arial, sans-serif">Baken de ruimte af</text></g><text transform="translate(58.42 677.85)" style="isolation:isolate;font-size:9px;fill:#fff;font-family:RijksoverheidSansText-Regular, RijksoverheidSansText, calibri, arial, sans-serif">als verblijfsobject</text><polygon points="36.7 622.1 224 622.1 224 598.2 36.7 598.2 36.7 622.1" style="fill:#007bc7"/><text transform="translate(45.41 612.21)" style="isolation:isolate;font-size:9px;fill:#fff;font-family:RijksoverheidSansText-Regular, RijksoverheidSansText, calibri, arial, sans-serif">9.</text><text transform="translate(58.42 612.21)" style="isolation:isolate;font-size:9px;fill:#fff;font-family:RijksoverheidSansText-Regular, RijksoverheidSansText, calibri, arial, sans-serif">Betreft de ruimte een uitzondering?</text><polygon points="102.6 641.7 132.6 641.7 132.6 625.8 102.6 625.8 102.6 641.7" style="fill:#39870c"/><text transform="translate(110.22 636.21)" style="isolation:isolate;font-size:9px;fill:#fff;font-family:RijksoverheidSansText-Bold, RijksoverheidSansText, calibri, arial, sans-serif;font-weight:700">Nee</text><polygon points="137.5 641.7 167.6 641.7 167.6 625.8 137.5 625.8 137.5 641.7" style="fill:#d52b1e"/><text transform="translate(148.87 636.21)" style="isolation:isolate;font-size:9px;fill:#fff;font-family:RijksoverheidSansText-Bold, RijksoverheidSansText, calibri, arial, sans-serif;font-weight:700">Ja</text><line x1="117.8" y1="594.8" x2="117.8" y2="586.2" style="fill:none;stroke:#000;stroke-width:0.5px"/><polyline points="117.8 598.2 121.4 594.3 114.1 594.3 117.8 598.2"/><line x1="167.6" y1="633.8" x2="249.1" y2="633.8" style="fill:none;stroke:#000;stroke-width:0.5px"/><text transform="translate(198.29 667.05)" style="isolation:isolate;font-size:9px;fill:#fff;font-family:RijksoverheidSansText-Regular, RijksoverheidSansText, calibri, arial, sans-serif">11.</text><text transform="translate(211.3 667.05)" style="isolation:isolate;font-size:9px;fill:#fff;font-family:RijksoverheidSansText-Regular, RijksoverheidSansText, calibri, arial, sans-serif">De ruimte is geen</text><text transform="translate(211.3 677.85)" style="isolation:isolate;font-size:9px;fill:#fff;font-family:RijksoverheidSansText-Regular, RijksoverheidSansText, calibri, arial, sans-serif">verblijfsobject</text></svg>
